<svg width="226" height="47" viewBox="0 0 226 47" fill="none" xmlns="http://www.w3.org/2000/svg">
<path d="M0.879395 8.81963L16.1009 0H71.9013L56.6753 8.81963H0.879395Z" fill="#E5E0D2"/>
<path d="M0 46.6662V12.6819H54.3701V20.1258H6.08061V46.6662H0Z" fill="#E5E0D2"/>
<path d="M10.8864 46.6639V39.2199H48.285V33.3909H10.8864V25.947H54.3701V46.6639H10.8864Z" fill="#E5E0D2"/>
<path d="M58.03 39.2194L69.3918 32.6346V26.5501L58.03 33.1349V12.679L73.256 3.85394V11.0423L64.1106 16.3384V22.4284L73.256 17.1269V37.5828L58.03 46.4024V39.2194Z" fill="#E5E0D2"/>
<path d="M84.623 1.52152H98.4852V7.3571H89.8635V18.731H96.6259V24.5666H89.8635V42.3561H84.623V1.52152Z" fill="#E5E0D2"/>
<path d="M103.537 1.52152H110.637L116.067 42.3488H110.826L109.873 34.2443V34.3603H103.916L102.963 42.3488H98.101L103.531 1.52152H103.537ZM109.257 28.8146L106.924 8.63295H106.829L104.544 28.8146H109.263H109.257Z" fill="#E5E0D2"/>
<path d="M119.501 40.2796C118.198 38.5108 117.547 35.9736 117.547 32.6679V30.3337H122.503V33.1319C122.503 35.7778 123.409 37.0972 125.221 37.0972C126.109 37.0972 126.785 36.7782 127.246 36.133C127.708 35.4951 127.939 34.4512 127.939 33.0159C127.939 31.3051 127.619 29.7973 126.986 28.4924C126.352 27.1876 125.174 25.629 123.463 23.795C121.301 21.4607 119.791 19.3512 118.939 17.4664C118.08 15.5817 117.654 13.4504 117.654 11.0799C117.654 7.85404 118.323 5.35307 119.655 3.58428C120.987 1.81548 122.924 0.93108 125.47 0.93108C128.016 0.93108 129.876 1.81548 131.166 3.58428C132.451 5.35307 133.097 7.89028 133.097 11.1959V12.885H128.141V10.7827C128.141 9.38361 127.916 8.36148 127.471 7.72355C127.027 7.08562 126.376 6.75941 125.517 6.75941C123.77 6.75941 122.9 8.06426 122.9 10.6667C122.9 12.1455 123.226 13.5229 123.877 14.806C124.528 16.0891 125.713 17.6477 127.424 19.4745C129.615 21.8087 131.125 23.9254 131.948 25.832C132.771 27.7385 133.186 29.9713 133.186 32.5375C133.186 35.8793 132.511 38.4455 131.161 40.2361C129.81 42.0266 127.85 42.9183 125.275 42.9183C122.699 42.9183 120.81 42.0339 119.507 40.2651L119.501 40.2796Z" fill="#E5E0D2"/>
<path d="M140.274 7.34985H134.797V1.52152H150.998V7.3571H145.52V42.3488H140.28V7.34985H140.274Z" fill="#E5E0D2"/>
<path d="M153.929 1.52152H161.692C164.392 1.52152 166.364 2.28993 167.601 3.82675C168.839 5.36358 169.461 7.72681 169.461 10.9164V13.4247C169.461 17.6654 168.318 20.3476 166.032 21.4712V21.5872C167.299 22.0512 168.199 23.0081 168.726 24.4434C169.247 25.886 169.514 27.807 169.514 30.221V37.3977C169.514 38.5648 169.544 39.5072 169.609 40.2248C169.674 40.9425 169.828 41.6529 170.082 42.3561H164.747C164.558 41.6964 164.427 41.073 164.368 40.4931C164.303 39.9131 164.273 38.862 164.273 37.3469V29.8803C164.273 28.0172 164.025 26.7124 163.533 25.973C163.042 25.2336 162.189 24.8638 160.987 24.8638H159.175V42.3633H153.934V1.52152H153.929ZM161.076 19.021C162.124 19.021 162.911 18.6875 163.433 18.0279C163.954 17.3682 164.22 16.2591 164.22 14.7005V11.5544C164.22 10.0755 164.007 9.00991 163.575 8.34299C163.148 7.68331 162.467 7.34985 161.55 7.34985H159.169V19.0138H161.076V19.021Z" fill="#E5E0D2"/>
<path d="M174.944 40.2756C173.612 38.5068 172.942 35.9696 172.942 32.664V1.52152H178.183V33.1352C178.183 34.5342 178.414 35.5491 178.876 36.1653C179.338 36.7887 179.995 37.1004 180.854 37.1004C181.712 37.1004 182.369 36.7887 182.831 36.1653C183.293 35.5419 183.524 34.5342 183.524 33.1352V1.52152H188.575V32.664C188.575 35.9696 187.906 38.5068 186.574 40.2756C185.241 42.0444 183.299 42.9288 180.759 42.9288C178.218 42.9288 176.282 42.0444 174.944 40.2756Z" fill="#E5E0D2"/>
<path d="M193.929 40.3049C192.608 38.5578 191.951 36.0859 191.951 32.8962V10.9675C191.951 7.77787 192.608 5.31316 193.929 3.55886C195.249 1.81181 197.162 0.934658 199.673 0.934658C202.183 0.934658 204.096 1.81181 205.416 3.55886C206.737 5.30591 207.394 7.77787 207.394 10.9675V15.2808H202.438V10.5543C202.438 8.02435 201.561 6.76299 199.815 6.76299C198.068 6.76299 197.197 8.02435 197.197 10.5543V33.3602C197.197 35.8467 198.068 37.0935 199.815 37.0935C201.561 37.0935 202.438 35.8467 202.438 33.3602V27.1187H207.394V32.8962C207.394 36.0859 206.737 38.5506 205.416 40.3049C204.096 42.0519 202.183 42.9291 199.673 42.9291C197.162 42.9291 195.249 42.0519 193.929 40.3049Z" fill="#E5E0D2"/>
<path d="M214.63 7.34985H209.152V1.52152H225.353V7.3571H219.876V42.3488H214.636V7.34985H214.63Z" fill="#E5E0D2"/>
</svg>
